<svg width="93" height="92" viewBox="0 0 93 92" fill="none" xmlns="http://www.w3.org/2000/svg">
<g filter="url(#filter0_d_172_3)">
<path d="M5.67578 27.4309L11.8778 24.8619L14.4468 31.0639L20.6488 33.6329L18.0798 39.8349L20.6488 46.0369L14.4468 48.6049L11.8778 54.8069L5.67578 52.2389M60.2228 83.2709L67.1068 76.3869L73.9908 83.2709H60.2228Z" stroke="#2D2D2D" stroke-width="0.583" stroke-miterlimit="10"/>
<path d="M5.67578 23.4624C14.7178 23.4624 22.0478 30.7924 22.0478 39.8344C22.0478 48.8764 14.7178 56.2064 5.67578 56.2064" stroke="#2D2D2D" stroke-width="0.583" stroke-miterlimit="10"/>
<path d="M33.7875 39.3492C33.7875 39.7872 33.4325 40.1422 32.9945 40.1422C32.5565 40.1422 32.2015 39.7872 32.2015 39.3492C32.2015 38.9112 32.5565 38.5562 32.9945 38.5562C33.4325 38.5562 33.7875 38.9112 33.7875 39.3492Z" fill="#2D2D2D"/>
<path d="M32.4008 41.7645C32.4008 42.2025 32.0458 42.5575 31.6078 42.5575C31.1698 42.5575 30.8148 42.2025 30.8148 41.7645C30.8148 41.3265 31.1698 40.9715 31.6078 40.9715C32.0458 40.9715 32.4008 41.3265 32.4008 41.7645Z" fill="#2D2D2D"/>
<path d="M35.1741 41.7645C35.1741 42.2025 34.8191 42.5575 34.3811 42.5575C33.9431 42.5575 33.5881 42.2025 33.5881 41.7645C33.5881 41.3265 33.9431 40.9715 34.3811 40.9715C34.8191 40.9715 35.1741 41.3265 35.1741 41.7645Z" fill="#2D2D2D"/>
<path d="M32.4024 46.6894C32.4024 47.1274 32.0474 47.4824 31.6094 47.4824C31.1714 47.4824 30.8164 47.1274 30.8164 46.6894C30.8164 46.2514 31.1714 45.8964 31.6094 45.8964C32.0474 45.8964 32.4024 46.2514 32.4024 46.6894Z" fill="#2D2D2D"/>
<path d="M29.5484 46.6894C29.5484 47.1274 29.1934 47.4824 28.7554 47.4824C28.3174 47.4824 27.9614 47.1274 27.9614 46.6894C27.9614 46.2514 28.3174 45.8964 28.7554 45.8964C29.1934 45.8964 29.5484 46.2514 29.5484 46.6894Z" fill="#2D2D2D"/>
<path d="M38.1106 46.6894C38.1106 47.1274 37.7556 47.4824 37.3176 47.4824C36.8796 47.4824 36.5246 47.1274 36.5246 46.6894C36.5246 46.2514 36.8796 45.8964 37.3176 45.8964C37.7556 45.8964 38.1106 46.2514 38.1106 46.6894Z" fill="#2D2D2D"/>
<path d="M35.2565 46.6894C35.2565 47.1274 34.9015 47.4824 34.4635 47.4824C34.0255 47.4824 33.6705 47.1274 33.6705 46.6894C33.6705 46.2514 34.0255 45.8964 34.4635 45.8964C34.9015 45.8964 35.2565 46.2514 35.2565 46.6894Z" fill="#2D2D2D"/>
<path d="M31.086 44.1969C31.086 44.6349 30.731 44.9899 30.293 44.9899C29.855 44.9899 29.5 44.6349 29.5 44.1969C29.5 43.7589 29.855 43.4039 30.293 43.4039C30.731 43.4039 31.086 43.7589 31.086 44.1969Z" fill="#2D2D2D"/>
<path d="M33.8062 44.1969C33.8062 44.6349 33.4512 44.9899 33.0132 44.9899C32.5752 44.9899 32.2192 44.6349 32.2192 44.1969C32.2192 43.7589 32.5752 43.4039 33.0132 43.4039C33.4512 43.4039 33.8062 43.7589 33.8062 44.1969Z" fill="#2D2D2D"/>
<path d="M36.5263 44.1969C36.5263 44.6349 36.1713 44.9899 35.7333 44.9899C35.2953 44.9899 34.9403 44.6349 34.9403 44.1969C34.9403 43.7589 35.2953 43.4039 35.7333 43.4039C36.1713 43.4039 36.5263 43.7589 36.5263 44.1969Z" fill="#2D2D2D"/>
<path d="M60.7929 39.3492C60.7929 39.7872 60.4379 40.1422 59.9999 40.1422C59.5619 40.1422 59.2069 39.7872 59.2069 39.3492C59.2069 38.9112 59.5619 38.5562 59.9999 38.5562C60.4379 38.5562 60.7929 38.9112 60.7929 39.3492Z" fill="#2D2D2D"/>
<path d="M59.4061 41.7645C59.4061 42.2025 59.0511 42.5575 58.6131 42.5575C58.1751 42.5575 57.8201 42.2025 57.8201 41.7645C57.8201 41.3265 58.1751 40.9715 58.6131 40.9715C59.0511 40.9715 59.4061 41.3265 59.4061 41.7645Z" fill="#2D2D2D"/>
<path d="M62.1796 41.7645C62.1796 42.2025 61.8246 42.5575 61.3866 42.5575C60.9486 42.5575 60.5936 42.2025 60.5936 41.7645C60.5936 41.3265 60.9486 40.9715 61.3866 40.9715C61.8246 40.9715 62.1796 41.3265 62.1796 41.7645Z" fill="#2D2D2D"/>
<path d="M59.4079 46.6894C59.4079 47.1274 59.0529 47.4824 58.6149 47.4824C58.1769 47.4824 57.8209 47.1274 57.8209 46.6894C57.8209 46.2514 58.1769 45.8964 58.6149 45.8964C59.0529 45.8964 59.4079 46.2514 59.4079 46.6894Z" fill="#2D2D2D"/>
<path d="M56.5537 46.6894C56.5537 47.1274 56.1987 47.4824 55.7607 47.4824C55.3227 47.4824 54.9667 47.1274 54.9667 46.6894C54.9667 46.2514 55.3227 45.8964 55.7607 45.8964C56.1987 45.8964 56.5537 46.2514 56.5537 46.6894Z" fill="#2D2D2D"/>
<path d="M65.116 46.6894C65.116 47.1274 64.761 47.4824 64.323 47.4824C63.885 47.4824 63.53 47.1274 63.53 46.6894C63.53 46.2514 63.885 45.8964 64.323 45.8964C64.761 45.8964 65.116 46.2514 65.116 46.6894Z" fill="#2D2D2D"/>
<path d="M62.262 46.6894C62.262 47.1274 61.907 47.4824 61.469 47.4824C61.031 47.4824 60.675 47.1274 60.675 46.6894C60.675 46.2514 61.031 45.8964 61.469 45.8964C61.907 45.8964 62.262 46.2514 62.262 46.6894Z" fill="#2D2D2D"/>
<path d="M58.0912 44.1969C58.0912 44.6349 57.7362 44.9899 57.2982 44.9899C56.8602 44.9899 56.5052 44.6349 56.5052 44.1969C56.5052 43.7589 56.8602 43.4039 57.2982 43.4039C57.7362 43.4039 58.0912 43.7589 58.0912 44.1969Z" fill="#2D2D2D"/>
<path d="M60.8115 44.1969C60.8115 44.6349 60.4565 44.9899 60.0185 44.9899C59.5805 44.9899 59.2245 44.6349 59.2245 44.1969C59.2245 43.7589 59.5805 43.4039 60.0185 43.4039C60.4565 43.4039 60.8115 43.7589 60.8115 44.1969Z" fill="#2D2D2D"/>
<path d="M63.5318 44.1969C63.5318 44.6349 63.1768 44.9899 62.7388 44.9899C62.3008 44.9899 61.9448 44.6349 61.9448 44.1969C61.9448 43.7589 62.3008 43.4039 62.7388 43.4039C63.1768 43.4039 63.5318 43.7589 63.5318 44.1969Z" fill="#2D2D2D"/>
<path d="M49.1992 10.3704C49.1992 15.3544 46.5672 19.3944 46.5672 19.3944C46.5672 19.3944 43.9352 15.3544 43.9352 10.3704C43.9352 5.38641 46.5672 1.34641 46.5672 1.34641C46.5672 1.34641 49.1992 5.38641 49.1992 10.3704ZM55.6982 3.28941C60.0142 5.78141 62.1972 10.0814 62.1972 10.0814C62.1972 10.0814 57.3822 10.3404 53.0662 7.84841C48.7502 5.35641 46.5672 1.05741 46.5672 1.05741C46.5672 1.05741 51.3822 0.79741 55.6982 3.28941ZM37.4362 3.28941C41.7522 0.79741 46.5672 1.05741 46.5672 1.05741C46.5672 1.05741 44.3842 5.35641 40.0682 7.84841C35.7522 10.3404 30.9372 10.0814 30.9372 10.0814C30.9372 10.0814 33.1202 5.78141 37.4362 3.28941Z" stroke="#2D2D2D" stroke-width="0.583" stroke-miterlimit="10"/>
<path d="M75.8285 1.05699L46.5675 30.318L17.2495 0.999994" stroke="#2D2D2D" stroke-width="0.583" stroke-miterlimit="10"/>
<path d="M46.6624 83.2709L53.5464 76.3869L60.4304 83.2709H46.6624ZM19.1264 83.2709L26.0104 76.3869L32.8944 83.2709H19.1264ZM32.8944 83.2709L39.7784 76.3869L46.6624 83.2709H32.8944ZM73.9904 83.2709L80.8744 76.3869L87.7584 83.2709H87.6424H5.4904H5.3584L12.2424 76.3869L19.1264 83.2709H73.9904ZM76.0854 39.1609L68.9214 31.9959L76.0854 24.8329V53.4879L68.9214 46.3239L76.0854 39.1609ZM5.6754 68.6849L16.4884 65.3939L5.6754 62.1029V68.6849ZM5.6754 75.2659L16.4884 71.9759L5.6754 68.6849V75.2659Z" stroke="#2D2D2D" stroke-width="0.583" stroke-miterlimit="10"/>
<path d="M22.9053 1.00075V3.82875M53.0173 12.3548L54.1023 16.4038L57.0663 13.4398L53.0173 12.3548ZM40.2883 12.3548L36.2403 13.4398L39.2043 16.4038L40.2883 12.3548ZM34.2793 1.03775L30.6493 1.03075V3.13375L34.2793 1.03775ZM59.0893 1.03775L62.7193 3.13375V1.03075L59.0893 1.03775ZM46.5673 21.2628V26.7708V21.2628ZM44.1853 21.2628V24.0908V21.2628ZM48.9483 21.2628V24.0908V21.2628ZM68.3163 1.00075V5.00475V1.00075ZM65.9353 1.00075V7.35775V1.00075ZM70.6983 1.00075V3.82875V1.00075ZM25.2873 1.00075V5.00475V1.00075ZM27.6683 1.00075V7.35775V1.00075Z" stroke="#2D2D2D" stroke-width="0.583" stroke-miterlimit="10"/>
<path d="M87.643 72.9246C84.899 72.9246 82.667 70.6916 82.667 67.9476C82.667 65.2036 84.899 62.9716 87.643 62.9716V72.9246Z" stroke="#2D2D2D" stroke-width="0.583" stroke-miterlimit="10"/>
<path d="M87.643 57.6808C84.899 57.6808 82.667 55.4478 82.667 52.7038C82.667 49.9598 84.899 47.7278 87.643 47.7278V57.6808Z" stroke="#2D2D2D" stroke-width="0.583" stroke-miterlimit="10"/>
<path d="M87.643 42.4557C84.899 42.4557 82.667 40.2227 82.667 37.4787C82.667 34.7347 84.899 32.5027 87.643 32.5027V42.4557Z" stroke="#2D2D2D" stroke-width="0.583" stroke-miterlimit="10"/>
<path d="M87.643 27.2305C84.899 27.2305 82.667 24.9975 82.667 22.2535C82.667 19.5095 84.899 17.2775 87.643 17.2775V27.2305Z" stroke="#2D2D2D" stroke-width="0.583" stroke-miterlimit="10"/>
<path d="M52.0889 67.623L46.5669 73.145L41.0449 67.623M41.1249 55.203L46.5669 49.762L52.0889 55.284" stroke="#2D2D2D" stroke-width="0.583" stroke-miterlimit="10"/>
<path d="M5.67523 39.8348L17.2472 28.2628M73.9902 78.9558L72.1442 77.1098L73.9902 75.2638L75.8362 77.1098L73.9902 78.9558ZM19.1262 78.9558L17.2802 77.1098L19.1262 75.2638L20.9722 77.1098L19.1262 78.9558ZM32.8942 78.9558L31.0482 77.1098L32.8942 75.2638L34.7402 77.1098L32.8942 78.9558ZM60.2222 78.9558L58.3762 77.1098L60.2222 75.2638L62.0682 77.1098L60.2222 78.9558ZM5.67523 39.8348H22.0472H5.67523ZM5.61523 39.7748L17.2472 51.4068L5.61523 39.7748Z" stroke="#2D2D2D" stroke-width="0.583" stroke-miterlimit="10"/>
<path d="M16.2141 35.7968C16.2141 36.3388 15.7741 36.7788 15.2321 36.7788C14.6901 36.7788 14.2501 36.3388 14.2501 35.7968C14.2501 35.2548 14.6901 34.8148 15.2321 34.8148C15.7741 34.8148 16.2141 35.2548 16.2141 35.7968ZM10.6491 29.9058C10.6491 30.4478 10.2091 30.8878 9.66712 30.8878C9.12512 30.8878 8.68512 30.4478 8.68512 29.9058C8.68512 29.3638 9.12512 28.9238 9.66712 28.9238C10.2091 28.9238 10.6491 29.3638 10.6491 29.9058ZM10.6491 49.2618C10.6491 49.8038 10.2091 50.2438 9.66712 50.2438C9.12512 50.2438 8.68512 49.8038 8.68512 49.2618C8.68512 48.7198 9.12512 48.2798 9.66712 48.2798C10.2091 48.2798 10.6491 48.7198 10.6491 49.2618ZM16.2141 43.6518C16.2141 44.1938 15.7741 44.6328 15.2321 44.6328C14.6901 44.6328 14.2501 44.1938 14.2501 43.6518C14.2501 43.1088 14.6901 42.6698 15.2321 42.6698C15.7741 42.6698 16.2141 43.1088 16.2141 43.6518ZM50.3551 61.4528C50.3551 67.9928 55.6571 73.2938 62.1961 73.2938C68.7361 73.2938 74.0371 67.9928 74.0371 61.4528C74.0371 54.9138 68.7361 49.6128 62.1961 49.6128C55.6571 49.6128 50.3551 54.9138 50.3551 61.4528ZM19.0961 61.4528C19.0961 67.9928 24.3971 73.2938 30.9371 73.2938C37.4761 73.2938 42.7771 67.9928 42.7771 61.4528C42.7771 54.9138 37.4761 49.6128 30.9371 49.6128C24.3971 49.6128 19.0961 54.9138 19.0961 61.4528Z" stroke="#2D2D2D" stroke-width="0.583" stroke-miterlimit="10"/>
<path d="M51.7528 61.4532C51.7528 67.2212 56.4288 71.8962 62.1958 71.8962C67.9638 71.8962 72.6398 67.2212 72.6398 61.4532C72.6398 55.6852 67.9638 51.0092 62.1958 51.0092C56.4288 51.0092 51.7528 55.6852 51.7528 61.4532Z" stroke="#2D2D2D" stroke-width="0.583" stroke-miterlimit="10"/>
<path d="M62.196 68.2798C58.432 68.2798 55.369 65.2178 55.369 61.4528C55.369 57.6888 58.432 54.6268 62.196 54.6268C65.96 54.6268 69.023 57.6888 69.023 61.4528C69.023 65.2178 65.96 68.2798 62.196 68.2798Z" stroke="#2D2D2D" stroke-width="0.583" stroke-miterlimit="10"/>
<path d="M20.4932 61.4532C20.4932 67.2212 25.1692 71.8962 30.9362 71.8962C36.7042 71.8962 41.3802 67.2212 41.3802 61.4532C41.3802 55.6852 36.7042 51.0092 30.9362 51.0092C25.1692 51.0092 20.4932 55.6852 20.4932 61.4532Z" stroke="#2D2D2D" stroke-width="0.583" stroke-miterlimit="10"/>
<path d="M30.9365 68.2798C27.1725 68.2798 24.1095 65.2178 24.1095 61.4528C24.1095 57.6888 27.1725 54.6268 30.9365 54.6268C34.7005 54.6268 37.7635 57.6888 37.7635 61.4528C37.7635 65.2178 34.7005 68.2798 30.9365 68.2798Z" stroke="#2D2D2D" stroke-width="0.583" stroke-miterlimit="10"/>
<path d="M5.61523 1.0004L46.5662 41.9514L87.5182 1.0004V7.0054L46.5662 47.9574L5.61523 7.0054V1.0004Z" stroke="#2D2D2D" stroke-width="0.583" stroke-miterlimit="10"/>
<path d="M49.8394 42.1635C49.8394 42.4915 49.5734 42.7585 49.2444 42.7585C48.9164 42.7585 48.6504 42.4915 48.6504 42.1635C48.6504 41.8355 48.9164 41.5685 49.2444 41.5685C49.5734 41.5685 49.8394 41.8355 49.8394 42.1635Z" fill="#2D2D2D"/>
<path d="M49.8394 42.1635C49.8394 42.4915 49.5734 42.7585 49.2444 42.7585C48.9164 42.7585 48.6504 42.4915 48.6504 42.1635C48.6504 41.8355 48.9164 41.5685 49.2444 41.5685C49.5734 41.5685 49.8394 41.8355 49.8394 42.1635Z" stroke="#2D2D2D" stroke-width="0.204" stroke-miterlimit="10"/>
<path d="M52.5464 39.4586C52.5464 39.7866 52.2804 40.0536 51.9514 40.0536C51.6234 40.0536 51.3574 39.7866 51.3574 39.4586C51.3574 39.1306 51.6234 38.8636 51.9514 38.8636C52.2804 38.8636 52.5464 39.1306 52.5464 39.4586Z" fill="#2D2D2D"/>
<path d="M52.5464 39.4586C52.5464 39.7866 52.2804 40.0536 51.9514 40.0536C51.6234 40.0536 51.3574 39.7866 51.3574 39.4586C51.3574 39.1306 51.6234 38.8636 51.9514 38.8636C52.2804 38.8636 52.5464 39.1306 52.5464 39.4586Z" stroke="#2D2D2D" stroke-width="0.204" stroke-miterlimit="10"/>
<path d="M55.2535 36.7536C55.2535 37.0816 54.9875 37.3486 54.6585 37.3486C54.3305 37.3486 54.0645 37.0816 54.0645 36.7536C54.0645 36.4256 54.3305 36.1586 54.6585 36.1586C54.9875 36.1586 55.2535 36.4256 55.2535 36.7536Z" fill="#2D2D2D"/>
<path d="M55.2535 36.7536C55.2535 37.0816 54.9875 37.3486 54.6585 37.3486C54.3305 37.3486 54.0645 37.0816 54.0645 36.7536C54.0645 36.4256 54.3305 36.1586 54.6585 36.1586C54.9875 36.1586 55.2535 36.4256 55.2535 36.7536Z" stroke="#2D2D2D" stroke-width="0.204" stroke-miterlimit="10"/>
<path d="M57.9595 34.0486C57.9595 34.3766 57.6935 34.6436 57.3645 34.6436C57.0365 34.6436 56.7705 34.3766 56.7705 34.0486C56.7705 33.7206 57.0365 33.4536 57.3645 33.4536C57.6935 33.4536 57.9595 33.7206 57.9595 34.0486Z" fill="#2D2D2D"/>
<path d="M57.9595 34.0486C57.9595 34.3766 57.6935 34.6436 57.3645 34.6436C57.0365 34.6436 56.7705 34.3766 56.7705 34.0486C56.7705 33.7206 57.0365 33.4536 57.3645 33.4536C57.6935 33.4536 57.9595 33.7206 57.9595 34.0486Z" stroke="#2D2D2D" stroke-width="0.204" stroke-miterlimit="10"/>
<path d="M60.6665 31.3436C60.6665 31.6716 60.4005 31.9386 60.0715 31.9386C59.7435 31.9386 59.4775 31.6716 59.4775 31.3436C59.4775 31.0156 59.7435 30.7486 60.0715 30.7486C60.4005 30.7486 60.6665 31.0156 60.6665 31.3436Z" fill="#2D2D2D"/>
<path d="M60.6665 31.3436C60.6665 31.6716 60.4005 31.9386 60.0715 31.9386C59.7435 31.9386 59.4775 31.6716 59.4775 31.3436C59.4775 31.0156 59.7435 30.7486 60.0715 30.7486C60.4005 30.7486 60.6665 31.0156 60.6665 31.3436Z" stroke="#2D2D2D" stroke-width="0.204" stroke-miterlimit="10"/>
<path d="M63.3726 28.6386C63.3726 28.9666 63.1066 29.2336 62.7776 29.2336C62.4496 29.2336 62.1836 28.9666 62.1836 28.6386C62.1836 28.3106 62.4496 28.0436 62.7776 28.0436C63.1066 28.0436 63.3726 28.3106 63.3726 28.6386Z" fill="#2D2D2D"/>
<path d="M63.3726 28.6386C63.3726 28.9666 63.1066 29.2336 62.7776 29.2336C62.4496 29.2336 62.1836 28.9666 62.1836 28.6386C62.1836 28.3106 62.4496 28.0436 62.7776 28.0436C63.1066 28.0436 63.3726 28.3106 63.3726 28.6386Z" stroke="#2D2D2D" stroke-width="0.204" stroke-miterlimit="10"/>
<path d="M66.0796 25.9334C66.0796 26.2614 65.8136 26.5284 65.4846 26.5284C65.1566 26.5284 64.8906 26.2614 64.8906 25.9334C64.8906 25.6054 65.1566 25.3384 65.4846 25.3384C65.8136 25.3384 66.0796 25.6054 66.0796 25.9334Z" fill="#2D2D2D"/>
<path d="M66.0796 25.9334C66.0796 26.2614 65.8136 26.5284 65.4846 26.5284C65.1566 26.5284 64.8906 26.2614 64.8906 25.9334C64.8906 25.6054 65.1566 25.3384 65.4846 25.3384C65.8136 25.3384 66.0796 25.6054 66.0796 25.9334Z" stroke="#2D2D2D" stroke-width="0.204" stroke-miterlimit="10"/>
<path d="M68.7857 23.2285C68.7857 23.5565 68.5197 23.8235 68.1907 23.8235C67.8627 23.8235 67.5967 23.5565 67.5967 23.2285C67.5967 22.9005 67.8627 22.6335 68.1907 22.6335C68.5197 22.6335 68.7857 22.9005 68.7857 23.2285Z" fill="#2D2D2D"/>
<path d="M68.7857 23.2285C68.7857 23.5565 68.5197 23.8235 68.1907 23.8235C67.8627 23.8235 67.5967 23.5565 67.5967 23.2285C67.5967 22.9005 67.8627 22.6335 68.1907 22.6335C68.5197 22.6335 68.7857 22.9005 68.7857 23.2285Z" stroke="#2D2D2D" stroke-width="0.204" stroke-miterlimit="10"/>
<path d="M71.4927 20.5235C71.4927 20.8515 71.2267 21.1185 70.8977 21.1185C70.5697 21.1185 70.3037 20.8515 70.3037 20.5235C70.3037 20.1955 70.5697 19.9285 70.8977 19.9285C71.2267 19.9285 71.4927 20.1955 71.4927 20.5235Z" fill="#2D2D2D"/>
<path d="M71.4927 20.5235C71.4927 20.8515 71.2267 21.1185 70.8977 21.1185C70.5697 21.1185 70.3037 20.8515 70.3037 20.5235C70.3037 20.1955 70.5697 19.9285 70.8977 19.9285C71.2267 19.9285 71.4927 20.1955 71.4927 20.5235Z" stroke="#2D2D2D" stroke-width="0.204" stroke-miterlimit="10"/>
<path d="M74.1997 17.8185C74.1997 18.1465 73.9337 18.4135 73.6047 18.4135C73.2767 18.4135 73.0107 18.1465 73.0107 17.8185C73.0107 17.4905 73.2767 17.2235 73.6047 17.2235C73.9337 17.2235 74.1997 17.4905 74.1997 17.8185Z" fill="#2D2D2D"/>
<path d="M74.1997 17.8185C74.1997 18.1465 73.9337 18.4135 73.6047 18.4135C73.2767 18.4135 73.0107 18.1465 73.0107 17.8185C73.0107 17.4905 73.2767 17.2235 73.6047 17.2235C73.9337 17.2235 74.1997 17.4905 74.1997 17.8185Z" stroke="#2D2D2D" stroke-width="0.204" stroke-miterlimit="10"/>
<path d="M76.9058 15.1133C76.9058 15.4413 76.6398 15.7083 76.3108 15.7083C75.9828 15.7083 75.7168 15.4413 75.7168 15.1133C75.7168 14.7853 75.9828 14.5183 76.3108 14.5183C76.6398 14.5183 76.9058 14.7853 76.9058 15.1133Z" fill="#2D2D2D"/>
<path d="M76.9058 15.1133C76.9058 15.4413 76.6398 15.7083 76.3108 15.7083C75.9828 15.7083 75.7168 15.4413 75.7168 15.1133C75.7168 14.7853 75.9828 14.5183 76.3108 14.5183C76.6398 14.5183 76.9058 14.7853 76.9058 15.1133Z" stroke="#2D2D2D" stroke-width="0.204" stroke-miterlimit="10"/>
<path d="M79.6128 12.4084C79.6128 12.7364 79.3468 13.0034 79.0178 13.0034C78.6898 13.0034 78.4238 12.7364 78.4238 12.4084C78.4238 12.0804 78.6898 11.8134 79.0178 11.8134C79.3468 11.8134 79.6128 12.0804 79.6128 12.4084Z" fill="#2D2D2D"/>
<path d="M79.6128 12.4084C79.6128 12.7364 79.3468 13.0034 79.0178 13.0034C78.6898 13.0034 78.4238 12.7364 78.4238 12.4084C78.4238 12.0804 78.6898 11.8134 79.0178 11.8134C79.3468 11.8134 79.6128 12.0804 79.6128 12.4084Z" stroke="#2D2D2D" stroke-width="0.204" stroke-miterlimit="10"/>
<path d="M82.3189 9.70334C82.3189 10.0313 82.0529 10.2983 81.7239 10.2983C81.3959 10.2983 81.1299 10.0313 81.1299 9.70334C81.1299 9.37534 81.3959 9.10834 81.7239 9.10834C82.0529 9.10834 82.3189 9.37534 82.3189 9.70334Z" fill="#2D2D2D"/>
<path d="M82.3189 9.70334C82.3189 10.0313 82.0529 10.2983 81.7239 10.2983C81.3959 10.2983 81.1299 10.0313 81.1299 9.70334C81.1299 9.37534 81.3959 9.10834 81.7239 9.10834C82.0529 9.10834 82.3189 9.37534 82.3189 9.70334Z" stroke="#2D2D2D" stroke-width="0.204" stroke-miterlimit="10"/>
<path d="M85.0259 6.99826C85.0259 7.32626 84.7599 7.59326 84.4309 7.59326C84.1029 7.59326 83.8369 7.32626 83.8369 6.99826C83.8369 6.67026 84.1029 6.40326 84.4309 6.40326C84.7599 6.40326 85.0259 6.67026 85.0259 6.99826Z" fill="#2D2D2D"/>
<path d="M85.0259 6.99826C85.0259 7.32626 84.7599 7.59326 84.4309 7.59326C84.1029 7.59326 83.8369 7.32626 83.8369 6.99826C83.8369 6.67026 84.1029 6.40326 84.4309 6.40326C84.7599 6.40326 85.0259 6.67026 85.0259 6.99826Z" stroke="#2D2D2D" stroke-width="0.204" stroke-miterlimit="10"/>
<path d="M47.1333 44.8686C47.1333 45.1966 46.8673 45.4636 46.5383 45.4636C46.2103 45.4636 45.9443 45.1966 45.9443 44.8686C45.9443 44.5406 46.2103 44.2736 46.5383 44.2736C46.8673 44.2736 47.1333 44.5406 47.1333 44.8686Z" fill="#2D2D2D"/>
<path d="M47.1333 44.8686C47.1333 45.1966 46.8673 45.4636 46.5383 45.4636C46.2103 45.4636 45.9443 45.1966 45.9443 44.8686C45.9443 44.5406 46.2103 44.2736 46.5383 44.2736C46.8673 44.2736 47.1333 44.5406 47.1333 44.8686Z" stroke="#2D2D2D" stroke-width="0.204" stroke-miterlimit="10"/>
<path d="M43.2373 42.1635C43.2373 42.4915 43.5033 42.7585 43.8323 42.7585C44.1603 42.7585 44.4263 42.4915 44.4263 42.1635C44.4263 41.8355 44.1603 41.5685 43.8323 41.5685C43.5033 41.5685 43.2373 41.8355 43.2373 42.1635Z" fill="#2D2D2D"/>
<path d="M43.2373 42.1635C43.2373 42.4915 43.5033 42.7585 43.8323 42.7585C44.1603 42.7585 44.4263 42.4915 44.4263 42.1635C44.4263 41.8355 44.1603 41.5685 43.8323 41.5685C43.5033 41.5685 43.2373 41.8355 43.2373 42.1635Z" stroke="#2D2D2D" stroke-width="0.204" stroke-miterlimit="10"/>
<path d="M40.5303 39.4586C40.5303 39.7866 40.7963 40.0536 41.1253 40.0536C41.4533 40.0536 41.7193 39.7866 41.7193 39.4586C41.7193 39.1306 41.4533 38.8636 41.1253 38.8636C40.7963 38.8636 40.5303 39.1306 40.5303 39.4586Z" fill="#2D2D2D"/>
<path d="M40.5303 39.4586C40.5303 39.7866 40.7963 40.0536 41.1253 40.0536C41.4533 40.0536 41.7193 39.7866 41.7193 39.4586C41.7193 39.1306 41.4533 38.8636 41.1253 38.8636C40.7963 38.8636 40.5303 39.1306 40.5303 39.4586Z" stroke="#2D2D2D" stroke-width="0.204" stroke-miterlimit="10"/>
<path d="M37.8242 36.7536C37.8242 37.0816 38.0902 37.3486 38.4192 37.3486C38.7472 37.3486 39.0132 37.0816 39.0132 36.7536C39.0132 36.4256 38.7472 36.1586 38.4192 36.1586C38.0902 36.1586 37.8242 36.4256 37.8242 36.7536Z" fill="#2D2D2D"/>
<path d="M37.8242 36.7536C37.8242 37.0816 38.0902 37.3486 38.4192 37.3486C38.7472 37.3486 39.0132 37.0816 39.0132 36.7536C39.0132 36.4256 38.7472 36.1586 38.4192 36.1586C38.0902 36.1586 37.8242 36.4256 37.8242 36.7536Z" stroke="#2D2D2D" stroke-width="0.204" stroke-miterlimit="10"/>
<path d="M35.1172 34.0486C35.1172 34.3766 35.3832 34.6436 35.7122 34.6436C36.0402 34.6436 36.3062 34.3766 36.3062 34.0486C36.3062 33.7206 36.0402 33.4536 35.7122 33.4536C35.3832 33.4536 35.1172 33.7206 35.1172 34.0486Z" fill="#2D2D2D"/>
<path d="M35.1172 34.0486C35.1172 34.3766 35.3832 34.6436 35.7122 34.6436C36.0402 34.6436 36.3062 34.3766 36.3062 34.0486C36.3062 33.7206 36.0402 33.4536 35.7122 33.4536C35.3832 33.4536 35.1172 33.7206 35.1172 34.0486Z" stroke="#2D2D2D" stroke-width="0.204" stroke-miterlimit="10"/>
<path d="M32.4102 31.3436C32.4102 31.6716 32.6762 31.9386 33.0052 31.9386C33.3332 31.9386 33.5992 31.6716 33.5992 31.3436C33.5992 31.0156 33.3332 30.7486 33.0052 30.7486C32.6762 30.7486 32.4102 31.0156 32.4102 31.3436Z" fill="#2D2D2D"/>
<path d="M32.4102 31.3436C32.4102 31.6716 32.6762 31.9386 33.0052 31.9386C33.3332 31.9386 33.5992 31.6716 33.5992 31.3436C33.5992 31.0156 33.3332 30.7486 33.0052 30.7486C32.6762 30.7486 32.4102 31.0156 32.4102 31.3436Z" stroke="#2D2D2D" stroke-width="0.204" stroke-miterlimit="10"/>
<path d="M29.7041 28.6386C29.7041 28.9666 29.9701 29.2336 30.2991 29.2336C30.6271 29.2336 30.8931 28.9666 30.8931 28.6386C30.8931 28.3106 30.6271 28.0436 30.2991 28.0436C29.9701 28.0436 29.7041 28.3106 29.7041 28.6386Z" fill="#2D2D2D"/>
<path d="M29.7041 28.6386C29.7041 28.9666 29.9701 29.2336 30.2991 29.2336C30.6271 29.2336 30.8931 28.9666 30.8931 28.6386C30.8931 28.3106 30.6271 28.0436 30.2991 28.0436C29.9701 28.0436 29.7041 28.3106 29.7041 28.6386Z" stroke="#2D2D2D" stroke-width="0.204" stroke-miterlimit="10"/>
<path d="M26.9971 25.9334C26.9971 26.2614 27.2631 26.5284 27.5921 26.5284C27.9201 26.5284 28.1861 26.2614 28.1861 25.9334C28.1861 25.6054 27.9201 25.3384 27.5921 25.3384C27.2631 25.3384 26.9971 25.6054 26.9971 25.9334Z" fill="#2D2D2D"/>
<path d="M26.9971 25.9334C26.9971 26.2614 27.2631 26.5284 27.5921 26.5284C27.9201 26.5284 28.1861 26.2614 28.1861 25.9334C28.1861 25.6054 27.9201 25.3384 27.5921 25.3384C27.2631 25.3384 26.9971 25.6054 26.9971 25.9334Z" stroke="#2D2D2D" stroke-width="0.204" stroke-miterlimit="10"/>
<path d="M24.291 23.2285C24.291 23.5565 24.557 23.8235 24.886 23.8235C25.214 23.8235 25.48 23.5565 25.48 23.2285C25.48 22.9005 25.214 22.6335 24.886 22.6335C24.557 22.6335 24.291 22.9005 24.291 23.2285Z" fill="#2D2D2D"/>
<path d="M24.291 23.2285C24.291 23.5565 24.557 23.8235 24.886 23.8235C25.214 23.8235 25.48 23.5565 25.48 23.2285C25.48 22.9005 25.214 22.6335 24.886 22.6335C24.557 22.6335 24.291 22.9005 24.291 23.2285Z" stroke="#2D2D2D" stroke-width="0.204" stroke-miterlimit="10"/>
<path d="M21.584 20.5235C21.584 20.8515 21.85 21.1185 22.179 21.1185C22.507 21.1185 22.773 20.8515 22.773 20.5235C22.773 20.1955 22.507 19.9285 22.179 19.9285C21.85 19.9285 21.584 20.1955 21.584 20.5235Z" fill="#2D2D2D"/>
<path d="M21.584 20.5235C21.584 20.8515 21.85 21.1185 22.179 21.1185C22.507 21.1185 22.773 20.8515 22.773 20.5235C22.773 20.1955 22.507 19.9285 22.179 19.9285C21.85 19.9285 21.584 20.1955 21.584 20.5235Z" stroke="#2D2D2D" stroke-width="0.204" stroke-miterlimit="10"/>
<path d="M18.8779 17.8185C18.8779 18.1465 19.1439 18.4135 19.4729 18.4135C19.8009 18.4135 20.0669 18.1465 20.0669 17.8185C20.0669 17.4905 19.8009 17.2235 19.4729 17.2235C19.1439 17.2235 18.8779 17.4905 18.8779 17.8185Z" fill="#2D2D2D"/>
<path d="M18.8779 17.8185C18.8779 18.1465 19.1439 18.4135 19.4729 18.4135C19.8009 18.4135 20.0669 18.1465 20.0669 17.8185C20.0669 17.4905 19.8009 17.2235 19.4729 17.2235C19.1439 17.2235 18.8779 17.4905 18.8779 17.8185Z" stroke="#2D2D2D" stroke-width="0.204" stroke-miterlimit="10"/>
<path d="M16.1709 15.1133C16.1709 15.4413 16.4369 15.7083 16.7659 15.7083C17.0939 15.7083 17.3599 15.4413 17.3599 15.1133C17.3599 14.7853 17.0939 14.5183 16.7659 14.5183C16.4369 14.5183 16.1709 14.7853 16.1709 15.1133Z" fill="#2D2D2D"/>
<path d="M16.1709 15.1133C16.1709 15.4413 16.4369 15.7083 16.7659 15.7083C17.0939 15.7083 17.3599 15.4413 17.3599 15.1133C17.3599 14.7853 17.0939 14.5183 16.7659 14.5183C16.4369 14.5183 16.1709 14.7853 16.1709 15.1133Z" stroke="#2D2D2D" stroke-width="0.204" stroke-miterlimit="10"/>
<path d="M13.4639 12.4084C13.4639 12.7364 13.7299 13.0034 14.0589 13.0034C14.3869 13.0034 14.6529 12.7364 14.6529 12.4084C14.6529 12.0804 14.3869 11.8134 14.0589 11.8134C13.7299 11.8134 13.4639 12.0804 13.4639 12.4084Z" fill="#2D2D2D"/>
<path d="M13.4639 12.4084C13.4639 12.7364 13.7299 13.0034 14.0589 13.0034C14.3869 13.0034 14.6529 12.7364 14.6529 12.4084C14.6529 12.0804 14.3869 11.8134 14.0589 11.8134C13.7299 11.8134 13.4639 12.0804 13.4639 12.4084Z" stroke="#2D2D2D" stroke-width="0.204" stroke-miterlimit="10"/>
<path d="M10.7578 9.70334C10.7578 10.0313 11.0238 10.2983 11.3528 10.2983C11.6808 10.2983 11.9468 10.0313 11.9468 9.70334C11.9468 9.37534 11.6808 9.10834 11.3528 9.10834C11.0238 9.10834 10.7578 9.37534 10.7578 9.70334Z" fill="#2D2D2D"/>
<path d="M10.7578 9.70334C10.7578 10.0313 11.0238 10.2983 11.3528 10.2983C11.6808 10.2983 11.9468 10.0313 11.9468 9.70334C11.9468 9.37534 11.6808 9.10834 11.3528 9.10834C11.0238 9.10834 10.7578 9.37534 10.7578 9.70334Z" stroke="#2D2D2D" stroke-width="0.204" stroke-miterlimit="10"/>
<path d="M8.05078 6.99826C8.05078 7.32626 8.31678 7.59326 8.64578 7.59326C8.97378 7.59326 9.23978 7.32626 9.23978 6.99826C9.23978 6.67026 8.97378 6.40326 8.64578 6.40326C8.31678 6.40326 8.05078 6.67026 8.05078 6.99826Z" fill="#2D2D2D"/>
<path d="M8.05078 6.99826C8.05078 7.32626 8.31678 7.59326 8.64578 7.59326C8.97378 7.59326 9.23978 7.32626 9.23978 6.99826C9.23978 6.67026 8.97378 6.40326 8.64578 6.40326C8.31678 6.40326 8.05078 6.67026 8.05078 6.99826Z" stroke="#2D2D2D" stroke-width="0.204" stroke-miterlimit="10"/>
<path d="M87.6428 45.0922V60.3172C83.4378 60.3172 80.0298 56.9092 80.0298 52.7042C80.0298 48.5002 83.4378 45.0922 87.6428 45.0922ZM87.6428 45.0922C83.4378 45.0922 80.0298 41.6832 80.0298 37.4792C80.0298 33.2752 83.4378 29.8662 87.6428 29.8662M87.6428 45.0922V29.8662M87.6428 29.8662C83.4378 29.8662 80.0298 26.4582 80.0298 22.2542C80.0298 18.0502 83.4378 14.6412 87.6428 14.6412V29.8662ZM79.1048 1.03116L46.5668 33.5302L14.0328 1.03116H79.1048ZM80.0298 67.9482C80.0298 72.1522 83.4378 75.5612 87.6428 75.5612V60.3362C83.4378 60.3362 80.0298 63.7442 80.0298 67.9482ZM5.6748 20.2232V59.4462C16.5058 59.4462 25.2868 50.6662 25.2868 39.8342C25.2868 29.0032 16.5058 20.2232 5.6748 20.2232Z" stroke="#2D2D2D" stroke-width="0.583" stroke-miterlimit="10"/>
</g>
<defs>
<filter id="filter0_d_172_3" x="0.654663" y="0.296631" width="91.8075" height="91.2657" filterUnits="userSpaceOnUse" color-interpolation-filters="sRGB">
<feFlood flood-opacity="0" result="BackgroundImageFix"/>
<feColorMatrix in="SourceAlpha" type="matrix" values="0 0 0 0 0 0 0 0 0 0 0 0 0 0 0 0 0 0 127 0" result="hardAlpha"/>
<feOffset dy="4"/>
<feGaussianBlur stdDeviation="2"/>
<feComposite in2="hardAlpha" operator="out"/>
<feColorMatrix type="matrix" values="0 0 0 0 0 0 0 0 0 0 0 0 0 0 0 0 0 0 0.25 0"/>
<feBlend mode="normal" in2="BackgroundImageFix" result="effect1_dropShadow_172_3"/>
<feBlend mode="normal" in="SourceGraphic" in2="effect1_dropShadow_172_3" result="shape"/>
</filter>
</defs>
</svg>
