<svg width="51" height="50" viewBox="0 0 51 50" fill="none" xmlns="http://www.w3.org/2000/svg">
<path d="M25.4837 49.9545C11.6939 49.9545 0.515015 38.7756 0.515015 24.9858C0.515015 11.1959 11.6939 0.0170479 25.4837 0.0170479C39.2736 0.0170479 50.4524 11.1959 50.4524 24.9858C50.4378 38.7694 39.2675 49.9397 25.4837 49.9545ZM35.999 24.1902C35.8262 23.8435 35.5452 23.5624 35.1983 23.3895V23.3806L20.9305 16.2467C20.0494 15.8064 18.9782 16.1637 18.5379 17.0448C18.4127 17.2953 18.3482 17.5718 18.3498 17.8518V32.1196C18.3493 33.1046 19.1474 33.9034 20.1324 33.904C20.4095 33.9041 20.6827 33.8397 20.9305 33.7159L35.1983 26.5819C36.0799 26.1426 36.4384 25.0718 35.999 24.1902Z" fill="#E0E0E0"/>
</svg>
